:SAMPLES-PER-SECOND 30
:FULLY-SPECIFIED
:DEGREES
363
root  -21.7448 34.7622 -20.3645 -168.06 -10.0114 179.468
RightUpLeg  -10.8121 -20.636 2.66701
RightLeg  6.96373 -4.48753 -0.255275
RightFoot  2.67907 0.0135252 -0.0356824
RightToes  -22.3421 -0.0960204 -0.195382
Spine  -1.41885 1.69831 0.398112
Spine1  -2.82844 3.55994 1.36904
HEad  -74.2451 4.21708 2.5376
LeftShoulder1  -1.94126e-019 -3.10601e-018 -2.51263e-017
LeftArm  -22.3933 32.0643 -68.8221
LeftForeArm  35.5395 -9.22573 -1.61571
LeftHand  -0.357923 1.15743 9.77054
RightShoulder  -4.96962e-017 0 -2.36833e-017
RightArm  -20.2608 -25.411 73.5898
RightForeArm  54.1879 17.3188 1.14262
RightHand  -0.450509 -0.719991 -11.1766
LeftUpLeg  -11.937 0.612351 4.22672
LeftLeg  4.89026 8.4035 0.175949
LeftFoot  8.5984 -0.093658 1.40733
LeftToes  -25.5098 2.03064e-006 1.83538e-008
364
root  -21.6916 34.6867 -20.4633 -168.003 -10.7545 179.36
RightUpLeg  -10.9928 -21.7896 2.7167
RightLeg  7.70503 -3.98531 -0.278394
RightFoot  2.00877 0.00991758 0.034846
RightToes  -22.6399 -0.0963154 -0.197702
Spine  -1.81466 1.57317 0.404945
Spine1  -3.5801 3.3663 1.35174
HEad  -73.0356 4.71659 1.96251
LeftShoulder1  -1.94126e-019 -3.10601e-018 -2.51263e-017
LeftArm  -31.9706 32.6524 -69.6038
LeftForeArm  32.3394 -5.47128 -0.955556
LeftHand  -0.252017 3.35649 13.9162
RightShoulder  -4.96962e-017 0 -2.36833e-017
RightArm  -28.7361 -25.428 73.934
RightForeArm  57.5399 13.3606 1.32775
RightHand  -0.363684 -2.14338 -12.7823
LeftUpLeg  -12.6295 0.66952 4.32731
LeftLeg  6.24092 7.4722 0.332143
LeftFoot  7.95132 -0.0709333 1.18213
LeftToes  -26.3721 2.03064e-006 1.83538e-008
365
root  -21.6261 34.6378 -20.4992 -167.999 -11.584 179.28
RightUpLeg  -11.0182 -22.7006 2.83582
RightLeg  8.00453 -3.89853 -0.292798
RightFoot  1.62485 0.00931489 0.0591098
RightToes  -22.626 -0.0966637 -0.199207
Spine  -2.10788 1.39261 0.486318
Spine1  -4.1455 3.02323 1.48615
HEad  -71.7112 5.01625 1.24096
LeftShoulder1  -1.94126e-019 -3.10601e-018 -2.51263e-017
LeftArm  -36.41 33.3002 -70.6741
LeftForeArm  24.7004 -3.43994 -0.610326
LeftHand  -0.0556219 5.09265 18.0397
RightShoulder  -4.96962e-017 0 -2.36833e-017
RightArm  -36.5932 -25.0259 73.599
RightForeArm  62.336 9.77558 1.52584
RightHand  -0.260783 -3.19789 -13.2948
LeftUpLeg  -13.1332 -0.518451 4.53634
LeftLeg  7.08011 7.82023 0.461932
LeftFoot  7.60459 -0.0675004 1.17716
LeftToes  -26.5955 2.03064e-006 1.83538e-008
366
root  -21.5685 34.6128 -20.4834 -168.132 -12.2396 179.207
RightUpLeg  -10.9312 -23.4484 2.88403
RightLeg  8.16044 -3.79475 -0.295376
RightFoot  1.44085 0.00964515 0.0672592
RightToes  -22.7281 -0.0971831 -0.200261
Spine  -2.1905 1.32405 0.587426
Spine1  -4.30678 2.87694 1.66599
HEad  -70.9243 5.04943 0.230384
LeftShoulder1  -1.94126e-019 -3.10601e-018 -2.51263e-017
LeftArm  -38.3295 33.6541 -72.3918
LeftForeArm  18.9787 -3.16989 -0.566358
LeftHand  0.00612084 5.49137 18.2452
RightShoulder  -4.96962e-017 0 -2.36833e-017
RightArm  -39.4108 -24.6589 73.0651
RightForeArm  65.0697 7.77976 1.31685
RightHand  -0.178142 -3.91474 -13.0531
LeftUpLeg  -13.3628 -2.00609 4.70888
LeftLeg  7.51056 8.70601 0.57933
LeftFoot  7.55309 -0.0721233 1.28016
LeftToes  -26.442 2.03064e-006 1.83538e-008
367
root  -21.5239 34.612 -20.4077 -168.276 -12.5461 179.105
RightUpLeg  -10.9546 -24.067 2.86002
RightLeg  8.31144 -3.50139 -0.28179
RightFoot  1.37744 0.00998996 0.0729579
RightToes  -22.8192 -0.097726 -0.201151
Spine  -2.0977 1.40071 0.678901
Spine1  -4.12662 3.01459 1.83296
HEad  -70.6842 5.1335 -0.95451
LeftShoulder1  -1.94126e-019 -3.10601e-018 -2.51263e-017
LeftArm  -39.9435 33.7469 -74.6344
LeftForeArm  18.7069 -4.51095 -0.797108
LeftHand  -0.0958502 4.73932 15.0544
RightShoulder  -4.96962e-017 0 -2.36833e-017
RightArm  -39.3245 -24.4907 72.6894
RightForeArm  67.0664 7.51499 1.26625
RightHand  -0.202177 -3.59222 -12.3074
LeftUpLeg  -13.7844 -3.09454 4.75915
LeftLeg  8.32048 9.49451 0.76563
LeftFoot  7.37198 -0.0751696 1.35155
LeftToes  -26.1169 2.03064e-006 1.83538e-008
368
root  -21.5068 34.6344 -20.2879 -168.343 -12.9478 178.984
RightUpLeg  -11.033 -25.0074 2.8543
RightLeg  8.22632 -3.03078 -0.239301
RightFoot  1.58236 0.0108987 0.068897
RightToes  -23.1018 -0.0993856 -0.202161
Spine  -1.92258 1.48963 0.788481
Spine1  -3.79092 3.16927 2.05196
HEad  -70.7306 5.30924 -2.2713
LeftShoulder1  -1.94126e-019 -3.10601e-018 -2.51263e-017
LeftArm  -39.6547 33.7289 -77.0635
LeftForeArm  22.5461 -7.25204 -1.27334
LeftHand  -0.271448 2.41573 10.3333
RightShoulder  -4.96962e-017 0 -2.36833e-017
RightArm  -36.1256 -24.6422 72.4175
RightForeArm  65.8998 8.77514 1.45077
RightHand  -0.239708 -3.13124 -11.7972
LeftUpLeg  -14.5754 -3.32573 4.6698
LeftLeg  9.5375 9.30153 0.948343
LeftFoot  7.04742 -0.0684355 1.27287
LeftToes  -25.8087 2.03064e-006 1.83538e-008
369
root  -21.4983 34.6788 -20.1385 -168.383 -13.6082 178.865
RightUpLeg  -10.952 -25.7 2.85701
RightLeg  7.73524 -3.08065 -0.216702
RightFoot  1.99328 0.0134684 0.0399389
RightToes  -23.0586 -0.101491 -0.203578
Spine  -1.6703 1.50128 0.909528
Spine1  -3.32696 3.14131 2.29768
HEad  -70.7227 5.68723 -3.46617
LeftShoulder1  -1.94126e-019 -3.10601e-018 -2.51263e-017
LeftArm  -36.3325 33.4862 -79.141
LeftForeArm  27.3342 -10.847 -1.89014
LeftHand  -0.341368 -0.673463 6.64691
RightShoulder  -4.96962e-017 0 -2.36833e-017
RightArm  -31.1222 -24.7638 72.2661
RightForeArm  61.8125 10.8423 1.53526
RightHand  -0.256729 -2.86537 -11.375
LeftUpLeg  -15.5606 -3.46471 4.5918
LeftLeg  10.8903 8.67912 1.09187
LeftFoot  6.76171 -0.0582344 1.14727
LeftToes  -25.9448 2.03064e-006 1.83538e-008
370
root  -21.5143 34.7198 -19.9855 -168.399 -14.7828 178.735
RightUpLeg  -10.6563 -27.0259 2.86477
RightLeg  6.85617 -2.97006 -0.163175
RightFoot  2.58552 0.0161782 0.00835785
RightToes  -23.6742 -0.103877 -0.205687
Spine  -1.43518 1.43698 1.04592
Spine1  -2.88413 2.96887 2.58359
HEad  -70.1453 6.15551 -4.60115
LeftShoulder1  -1.94126e-019 -3.10601e-018 -2.51263e-017
LeftArm  -32.1979 33.1673 -80.9302
LeftForeArm  31.6601 -16.602 -2.67376
LeftHand  -0.405894 -2.4938 6.19114
RightShoulder  -4.96962e-017 0 -2.36833e-017
RightArm  -26.9567 -24.6591 72.0573
RightForeArm  57.9252 12.761 1.40157
RightHand  -0.277114 -2.5827 -11.1135
LeftUpLeg  -17.0148 -3.16249 4.44528
LeftLeg  13.0024 7.34876 1.2008
LeftFoot  5.64952 -0.0346261 0.842506
LeftToes  -26.9793 2.03064e-006 1.83538e-008
